<?xml version="1.0" encoding="UTF-8"?>
      <mxfile host="codeviz.app" modified="2025-08-06T06:23:40.440Z" agent="CodeViz Exporter" version="14.6.5" type="device">
        <diagram id="codeviz-diagram" name="System Diagram">
          <mxGraphModel dx="1000" dy="1000" grid="1" gridSize="10" guides="1" tooltips="1" connect="1" arrows="1" fold="1" page="1" pageScale="1" pageWidth="1169" pageHeight="827" math="0" shadow="0">
            <root>
              <mxCell id="0"/>
              <mxCell id="1" parent="0"/>
              <mxCell id="3" value="" style="html=1;whiteSpace=wrap;container=1;fillColor=#dae8fc;strokeColor=#6c8ebf;dashed=1;fillOpacity=20;strokeWidth=2;containerType=none;recursiveResize=0;movable=1;resizable=1;autosize=0;dropTarget=0" vertex="1" parent="2">
                <mxGeometry x="50" y="250" width="2490" height="220" as="geometry"/>
              </mxCell>
              <mxCell id="3_label" value="Individual Shipping Line Crawlers&lt;br&gt;Python" style="edgeLabel;html=1;align=center;verticalAlign=middle;resizable=0;labelBackgroundColor=white;spacing=5" vertex="1" parent="2">
                <mxGeometry x="58" y="258" width="2414" height="24" as="geometry"/>
              </mxCell>
<mxCell id="1" value="" style="html=1;whiteSpace=wrap;container=1;fillColor=#dae8fc;strokeColor=#6c8ebf;dashed=1;fillOpacity=20;strokeWidth=2;containerType=none;recursiveResize=0;movable=1;resizable=1;autosize=0;dropTarget=0" vertex="1" parent="1">
                <mxGeometry x="42" y="677" width="270" height="540" as="geometry"/>
              </mxCell>
              <mxCell id="1_label" value="Google Integration System&lt;br&gt;Python" style="edgeLabel;html=1;align=center;verticalAlign=middle;resizable=0;labelBackgroundColor=white;spacing=5" vertex="1" parent="1">
                <mxGeometry x="50" y="685" width="194" height="24" as="geometry"/>
              </mxCell>
<mxCell id="2" value="" style="html=1;whiteSpace=wrap;container=1;fillColor=#dae8fc;strokeColor=#6c8ebf;dashed=1;fillOpacity=20;strokeWidth=2;containerType=none;recursiveResize=0;movable=1;resizable=1;autosize=0;dropTarget=0" vertex="1" parent="1">
                <mxGeometry x="336" y="677" width="2550" height="490" as="geometry"/>
              </mxCell>
              <mxCell id="2_label" value="Crawler System&lt;br&gt;Python" style="edgeLabel;html=1;align=center;verticalAlign=middle;resizable=0;labelBackgroundColor=white;spacing=5" vertex="1" parent="1">
                <mxGeometry x="344" y="685" width="2474" height="24" as="geometry"/>
              </mxCell>
<mxCell id="4" value="" style="html=1;whiteSpace=wrap;container=1;fillColor=#dae8fc;strokeColor=#6c8ebf;dashed=1;fillOpacity=20;strokeWidth=2;containerType=none;recursiveResize=0;movable=1;resizable=1;autosize=0;dropTarget=0" vertex="1" parent="1">
                <mxGeometry x="818.5" y="287" width="390" height="220" as="geometry"/>
              </mxCell>
              <mxCell id="4_label" value="Core Application System&lt;br&gt;Python" style="edgeLabel;html=1;align=center;verticalAlign=middle;resizable=0;labelBackgroundColor=white;spacing=5" vertex="1" parent="1">
                <mxGeometry x="826.5" y="295" width="314" height="24" as="geometry"/>
              </mxCell>
              <mxCell id="28" value="Google Services&lt;br&gt;External API" style="rounded=1;whiteSpace=wrap;html=1;fillColor=#f5f5f5" vertex="1" parent="1">
                    <mxGeometry x="12" y="1367" width="120" height="60" as="geometry"/>
                  </mxCell>
<mxCell id="5" value="User&lt;br&gt;External Actor" style="rounded=1;whiteSpace=wrap;html=1;fillColor=#f5f5f5" vertex="1" parent="1">
                    <mxGeometry x="828.5" y="12" width="120" height="60" as="geometry"/>
                  </mxCell>
<mxCell id="25" value="OAuth Authentication&lt;br&gt;Python" style="rounded=1;whiteSpace=wrap;html=1;fillColor=#f5f5f5" vertex="1" parent="1">
                    <mxGeometry x="60" y="120" width="120" height="60" as="geometry"/>
                  </mxCell>
<mxCell id="26" value="Google Drive ID Checker&lt;br&gt;Python" style="rounded=1;whiteSpace=wrap;html=1;fillColor=#f5f5f5" vertex="1" parent="1">
                    <mxGeometry x="40" y="280" width="120" height="60" as="geometry"/>
                  </mxCell>
<mxCell id="27" value="Google Drive Uploader&lt;br&gt;Python" style="rounded=1;whiteSpace=wrap;html=1;fillColor=#f5f5f5" vertex="1" parent="1">
                    <mxGeometry x="70" y="440" width="120" height="60" as="geometry"/>
                  </mxCell>
<mxCell id="6" value="Main Application Entry Point&lt;br&gt;Python" style="rounded=1;whiteSpace=wrap;html=1;fillColor=#f5f5f5" vertex="1" parent="4">
                    <mxGeometry x="40" y="120" width="120" height="60" as="geometry"/>
                  </mxCell>
<mxCell id="7" value="Data Cleanup Utility&lt;br&gt;Python" style="rounded=1;whiteSpace=wrap;html=1;fillColor=#f5f5f5" vertex="1" parent="4">
                    <mxGeometry x="190" y="120" width="120" height="60" as="geometry"/>
                  </mxCell>
<mxCell id="8" value="Base Crawler Framework&lt;br&gt;Python" style="rounded=1;whiteSpace=wrap;html=1;fillColor=#f5f5f5" vertex="1" parent="2">
                    <mxGeometry x="1205" y="120" width="120" height="60" as="geometry"/>
                  </mxCell>
<mxCell id="10" value="COSCO&lt;br&gt;Python" style="rounded=1;whiteSpace=wrap;html=1;fillColor=#f5f5f5" vertex="1" parent="3">
                    <mxGeometry x="190" y="120" width="120" height="60" as="geometry"/>
                  </mxCell>
<mxCell id="11" value="DY Line&lt;br&gt;Python" style="rounded=1;whiteSpace=wrap;html=1;fillColor=#f5f5f5" vertex="1" parent="3">
                    <mxGeometry x="940" y="120" width="120" height="60" as="geometry"/>
                  </mxCell>
<mxCell id="12" value="Evergreen&lt;br&gt;Python" style="rounded=1;whiteSpace=wrap;html=1;fillColor=#f5f5f5" vertex="1" parent="3">
                    <mxGeometry x="40" y="120" width="120" height="60" as="geometry"/>
                  </mxCell>
<mxCell id="13" value="FDT&lt;br&gt;Python" style="rounded=1;whiteSpace=wrap;html=1;fillColor=#f5f5f5" vertex="1" parent="3">
                    <mxGeometry x="1690" y="120" width="120" height="60" as="geometry"/>
                  </mxCell>
<mxCell id="14" value="HMM&lt;br&gt;Python" style="rounded=1;whiteSpace=wrap;html=1;fillColor=#f5f5f5" vertex="1" parent="3">
                    <mxGeometry x="1840" y="120" width="120" height="60" as="geometry"/>
                  </mxCell>
<mxCell id="15" value="IAL&lt;br&gt;Python" style="rounded=1;whiteSpace=wrap;html=1;fillColor=#f5f5f5" vertex="1" parent="3">
                    <mxGeometry x="340" y="120" width="120" height="60" as="geometry"/>
                  </mxCell>
<mxCell id="16" value="NSS&lt;br&gt;Python" style="rounded=1;whiteSpace=wrap;html=1;fillColor=#f5f5f5" vertex="1" parent="3">
                    <mxGeometry x="640" y="120" width="120" height="60" as="geometry"/>
                  </mxCell>
<mxCell id="17" value="ONE&lt;br&gt;Python" style="rounded=1;whiteSpace=wrap;html=1;fillColor=#f5f5f5" vertex="1" parent="3">
                    <mxGeometry x="1390" y="120" width="120" height="60" as="geometry"/>
                  </mxCell>
<mxCell id="18" value="Pan Ocean&lt;br&gt;Python" style="rounded=1;whiteSpace=wrap;html=1;fillColor=#f5f5f5" vertex="1" parent="3">
                    <mxGeometry x="2140" y="120" width="120" height="60" as="geometry"/>
                  </mxCell>
<mxCell id="19" value="PIL&lt;br&gt;Python" style="rounded=1;whiteSpace=wrap;html=1;fillColor=#f5f5f5" vertex="1" parent="3">
                    <mxGeometry x="1090" y="120" width="120" height="60" as="geometry"/>
                  </mxCell>
<mxCell id="20" value="SITC&lt;br&gt;Python" style="rounded=1;whiteSpace=wrap;html=1;fillColor=#f5f5f5" vertex="1" parent="3">
                    <mxGeometry x="2290" y="120" width="120" height="60" as="geometry"/>
                  </mxCell>
<mxCell id="21" value="SM Line&lt;br&gt;Python" style="rounded=1;whiteSpace=wrap;html=1;fillColor=#f5f5f5" vertex="1" parent="3">
                    <mxGeometry x="490" y="120" width="120" height="60" as="geometry"/>
                  </mxCell>
<mxCell id="22" value="SNL&lt;br&gt;Python" style="rounded=1;whiteSpace=wrap;html=1;fillColor=#f5f5f5" vertex="1" parent="3">
                    <mxGeometry x="790" y="120" width="120" height="60" as="geometry"/>
                  </mxCell>
<mxCell id="23" value="Wan Hai&lt;br&gt;Python" style="rounded=1;whiteSpace=wrap;html=1;fillColor=#f5f5f5" vertex="1" parent="3">
                    <mxGeometry x="1990" y="120" width="120" height="60" as="geometry"/>
                  </mxCell>
<mxCell id="24" value="YML&lt;br&gt;Python" style="rounded=1;whiteSpace=wrap;html=1;fillColor=#f5f5f5" vertex="1" parent="3">
                    <mxGeometry x="1240" y="120" width="120" height="60" as="geometry"/>
                  </mxCell>
<mxCell id="9" value="CK Line&lt;br&gt;Python" style="rounded=1;whiteSpace=wrap;html=1;fillColor=#f5f5f5" vertex="1" parent="3">
                    <mxGeometry x="1540" y="120" width="120" height="60" as="geometry"/>
                  </mxCell>
              <mxCell id="edge-6" style="edgeStyle=orthogonalEdgeStyle;rounded=1;orthogonalLoop=1;jettySize=auto;html=1;strokeColor=#808080;strokeWidth=2;jumpStyle=arc;jumpSize=10;spacing=15;labelBackgroundColor=white;labelBorderColor=none" edge="1" parent="1" source="25" target="26">
                  <mxGeometry relative="1" as="geometry"/>
                </mxCell>
                <mxCell id="edge-6_label" value="provides auth to" style="edgeLabel;html=1;align=center;verticalAlign=middle;resizable=0;points=[];" vertex="1" connectable="0" parent="edge-6">
                  <mxGeometry x="-0.2" y="10" relative="1" as="geometry">
                    <mxPoint as="offset"/>
                  </mxGeometry>
                </mxCell>
<mxCell id="edge-7" style="edgeStyle=orthogonalEdgeStyle;rounded=1;orthogonalLoop=1;jettySize=auto;html=1;strokeColor=#808080;strokeWidth=2;jumpStyle=arc;jumpSize=10;spacing=15;labelBackgroundColor=white;labelBorderColor=none" edge="1" parent="1" source="25" target="27">
                  <mxGeometry relative="1" as="geometry"/>
                </mxCell>
                <mxCell id="edge-7_label" value="provides auth to" style="edgeLabel;html=1;align=center;verticalAlign=middle;resizable=0;points=[];" vertex="1" connectable="0" parent="edge-7">
                  <mxGeometry x="-0.2" y="10" relative="1" as="geometry">
                    <mxPoint as="offset"/>
                  </mxGeometry>
                </mxCell>
<mxCell id="edge-8" style="edgeStyle=orthogonalEdgeStyle;rounded=1;orthogonalLoop=1;jettySize=auto;html=1;strokeColor=#808080;strokeWidth=2;jumpStyle=arc;jumpSize=10;spacing=15;labelBackgroundColor=white;labelBorderColor=none" edge="1" parent="1" source="26" target="27">
                  <mxGeometry relative="1" as="geometry"/>
                </mxCell>
                <mxCell id="edge-8_label" value="informs target for" style="edgeLabel;html=1;align=center;verticalAlign=middle;resizable=0;points=[];" vertex="1" connectable="0" parent="edge-8">
                  <mxGeometry x="-0.2" y="10" relative="1" as="geometry">
                    <mxPoint as="offset"/>
                  </mxGeometry>
                </mxCell>
<mxCell id="edge-9" style="edgeStyle=orthogonalEdgeStyle;rounded=1;orthogonalLoop=1;jettySize=auto;html=1;strokeColor=#808080;strokeWidth=2;jumpStyle=arc;jumpSize=10;spacing=15;labelBackgroundColor=white;labelBorderColor=none" edge="1" parent="1" source="1" target="28">
                  <mxGeometry relative="1" as="geometry"/>
                </mxCell>
                <mxCell id="edge-9_label" value="interacts with" style="edgeLabel;html=1;align=center;verticalAlign=middle;resizable=0;points=[];" vertex="1" connectable="0" parent="edge-9">
                  <mxGeometry x="-0.2" y="10" relative="1" as="geometry">
                    <mxPoint as="offset"/>
                  </mxGeometry>
                </mxCell>
<mxCell id="edge-4" style="edgeStyle=orthogonalEdgeStyle;rounded=1;orthogonalLoop=1;jettySize=auto;html=1;strokeColor=#808080;strokeWidth=2;jumpStyle=arc;jumpSize=10;spacing=15;labelBackgroundColor=white;labelBorderColor=none" edge="1" parent="1" source="8" target="3">
                  <mxGeometry relative="1" as="geometry"/>
                </mxCell>
                <mxCell id="edge-4_label" value="provides framework for" style="edgeLabel;html=1;align=center;verticalAlign=middle;resizable=0;points=[];" vertex="1" connectable="0" parent="edge-4">
                  <mxGeometry x="-0.2" y="10" relative="1" as="geometry">
                    <mxPoint as="offset"/>
                  </mxGeometry>
                </mxCell>
<mxCell id="edge-5" style="edgeStyle=orthogonalEdgeStyle;rounded=1;orthogonalLoop=1;jettySize=auto;html=1;strokeColor=#808080;strokeWidth=2;jumpStyle=arc;jumpSize=10;spacing=15;labelBackgroundColor=white;labelBorderColor=none" edge="1" parent="1" source="3" target="6">
                  <mxGeometry relative="1" as="geometry"/>
                </mxCell>
                <mxCell id="edge-5_label" value="returns crawled data to" style="edgeLabel;html=1;align=center;verticalAlign=middle;resizable=0;points=[];" vertex="1" connectable="0" parent="edge-5">
                  <mxGeometry x="-0.2" y="10" relative="1" as="geometry">
                    <mxPoint as="offset"/>
                  </mxGeometry>
                </mxCell>
<mxCell id="edge-1" style="edgeStyle=orthogonalEdgeStyle;rounded=1;orthogonalLoop=1;jettySize=auto;html=1;strokeColor=#808080;strokeWidth=2;jumpStyle=arc;jumpSize=10;spacing=15;labelBackgroundColor=white;labelBorderColor=none" edge="1" parent="1" source="5" target="6">
                  <mxGeometry relative="1" as="geometry"/>
                </mxCell>
                <mxCell id="edge-1_label" value="initiates" style="edgeLabel;html=1;align=center;verticalAlign=middle;resizable=0;points=[];" vertex="1" connectable="0" parent="edge-1">
                  <mxGeometry x="-0.2" y="10" relative="1" as="geometry">
                    <mxPoint as="offset"/>
                  </mxGeometry>
                </mxCell>
<mxCell id="edge-2" style="edgeStyle=orthogonalEdgeStyle;rounded=1;orthogonalLoop=1;jettySize=auto;html=1;strokeColor=#808080;strokeWidth=2;jumpStyle=arc;jumpSize=10;spacing=15;labelBackgroundColor=white;labelBorderColor=none" edge="1" parent="1" source="6" target="8">
                  <mxGeometry relative="1" as="geometry"/>
                </mxCell>
                <mxCell id="edge-2_label" value="orchestrates crawling" style="edgeLabel;html=1;align=center;verticalAlign=middle;resizable=0;points=[];" vertex="1" connectable="0" parent="edge-2">
                  <mxGeometry x="-0.2" y="10" relative="1" as="geometry">
                    <mxPoint as="offset"/>
                  </mxGeometry>
                </mxCell>
<mxCell id="edge-3" style="edgeStyle=orthogonalEdgeStyle;rounded=1;orthogonalLoop=1;jettySize=auto;html=1;strokeColor=#808080;strokeWidth=2;jumpStyle=arc;jumpSize=10;spacing=15;labelBackgroundColor=white;labelBorderColor=none" edge="1" parent="1" source="6" target="27">
                  <mxGeometry relative="1" as="geometry"/>
                </mxCell>
                <mxCell id="edge-3_label" value="uploads data to" style="edgeLabel;html=1;align=center;verticalAlign=middle;resizable=0;points=[];" vertex="1" connectable="0" parent="edge-3">
                  <mxGeometry x="-0.2" y="10" relative="1" as="geometry">
                    <mxPoint as="offset"/>
                  </mxGeometry>
                </mxCell>
            </root>
          </mxGraphModel>
        </diagram>
      </mxfile>